<?xml version="1.0" standalone="no"?>
<!DOCTYPE svg PUBLIC "-//W3C//DTD SVG 20010904//EN"
 "http://www.w3.org/TR/2001/REC-SVG-20010904/DTD/svg10.dtd">
<svg version="1.0" xmlns="http://www.w3.org/2000/svg"
 width="372.000000pt" height="368.000000pt" viewBox="0 0 372.000000 368.000000"
 preserveAspectRatio="xMidYMid meet">
<metadata>
Created by potrace 1.16, written by Peter Selinger 2001-2019
</metadata>
<g transform="translate(0.000000,368.000000) scale(0.100000,-0.100000)"
fill="#000000" stroke="none">
<path d="M1665 3418 c-99 -43 -263 -115 -365 -158 -102 -43 -237 -101 -300
-129 -63 -27 -232 -101 -375 -164 l-260 -113 -3 -637 c-2 -632 -2 -637 18
-637 11 0 20 -4 20 -9 0 -33 25 -179 41 -246 80 -317 361 -667 719 -895 194
-124 601 -284 720 -284 125 1 546 170 745 300 417 272 683 646 727 1025 10 81
15 100 30 105 17 5 18 35 18 640 l0 635 -52 23 c-29 13 -111 49 -183 79 -71
31 -220 95 -330 142 -110 48 -240 104 -290 125 -49 21 -128 55 -175 75 -47 20
-121 51 -165 70 -44 18 -134 56 -200 84 -65 28 -128 51 -140 50 -11 -1 -101
-37 -200 -81z m357 1 c79 -33 157 -66 173 -74 17 -7 75 -32 130 -54 55 -23
118 -50 140 -60 22 -10 66 -28 98 -41 50 -20 56 -24 45 -39 -11 -14 -11 -14 3
-4 19 15 46 8 148 -42 36 -17 87 -40 114 -50 26 -10 47 -20 47 -22 0 -3 -7 -3
-15 1 -8 3 -19 -3 -25 -12 -11 -16 -11 -16 -6 0 3 12 -2 22 -17 29 -19 11 -20
10 -9 -3 21 -26 -10 -19 -113 27 -16 7 -86 35 -155 63 -69 28 -197 83 -285
122 -88 39 -180 78 -205 86 -25 9 -77 31 -117 50 -39 19 -82 34 -95 34 -13 0
-102 -34 -198 -76 -96 -42 -231 -100 -300 -128 -69 -29 -150 -64 -180 -78 -94
-44 -150 -67 -150 -62 0 3 -9 0 -20 -6 -16 -8 -24 -7 -36 4 -13 14 -11 17 18
29 101 44 287 124 383 167 61 27 155 67 210 91 55 23 134 56 175 74 41 18 81
34 87 34 7 1 77 -26 155 -60z m-763 -414 c1 -6 -11 -15 -26 -22 -67 -28 -106
-43 -108 -41 -1 2 -11 27 -23 56 l-21 53 47 20 c26 10 56 23 67 28 17 8 23 2
42 -38 12 -25 22 -51 22 -56z m600 -89 c89 -46 150 -130 151 -208 0 -21 -6
-41 -14 -45 -7 -4 -21 -25 -31 -45 -9 -21 -21 -35 -26 -32 -5 3 -2 18 6 34 29
57 17 133 -32 190 -96 112 -265 119 -368 15 -50 -49 -69 -100 -62 -161 14
-124 160 -211 292 -175 53 14 59 14 63 2 5 -15 -65 -31 -136 -31 -108 0 -206
68 -234 162 -6 24 -18 47 -26 52 -19 11 -8 67 25 128 24 44 72 91 120 116 70
38 196 36 272 -2z m367 5 c57 -26 111 -77 140 -132 23 -47 34 -126 14 -114 -5
3 -14 -12 -19 -33 -32 -118 -127 -187 -256 -186 -123 1 -214 63 -251 170 -10
31 -25 59 -31 61 -20 8 -15 51 7 63 25 13 40 -12 40 -70 0 -112 104 -200 237
-200 95 1 151 28 206 101 23 30 27 46 27 98 0 74 -15 107 -72 155 -71 61 -173
81 -258 51 -42 -15 -70 -8 -70 15 0 9 70 37 110 44 42 7 133 -5 176 -23z
m-1525 -734 c90 -30 200 -65 244 -78 44 -12 81 -23 82 -24 2 -1 -45 -115 -107
-260 -7 -17 -9 -15 -9 12 -1 17 15 73 34 123 19 50 35 98 35 105 0 9 -33 24
-87 40 -259 77 -505 165 -511 183 -2 7 27 1 76 -17 44 -16 153 -54 243 -84z
m2666 88 c-9 -7 -94 -38 -189 -69 -201 -67 -310 -107 -304 -113 2 -3 -5 -14
-16 -25 -25 -25 -34 -17 -17 14 11 21 11 22 -4 10 -8 -7 -21 -12 -29 -11 -34
4 -33 -5 3 -95 40 -101 51 -146 39 -165 -4 -8 -12 7 -20 36 -17 60 -46 127
-77 175 -26 42 -29 58 -10 58 16 0 429 136 542 178 77 29 116 32 82 7z m-1558
-136 c17 -6 31 -14 31 -18 0 -4 -51 -31 -112 -62 l-113 -55 -40 -75 c-22 -42
-61 -104 -88 -139 -50 -66 -51 -73 -21 -132 22 -43 58 -62 103 -54 31 5 40 2
47 -12 4 -9 6 -22 5 -28 0 -6 7 -18 16 -25 16 -13 17 -12 5 3 -10 12 -10 18
-1 23 8 6 7 10 -2 16 -25 15 -15 34 35 64 27 17 70 57 95 89 63 80 90 98 155
104 89 7 185 -46 509 -281 65 -47 157 -147 157 -170 0 -6 -23 11 -51 38 -47
46 -52 49 -62 31 -40 -63 -74 -77 -43 -17 9 16 16 34 16 38 -1 4 -10 -9 -21
-29 -11 -21 -24 -38 -29 -38 -13 0 -12 10 5 40 22 39 17 49 -6 13 -12 -18 -26
-33 -31 -33 -6 0 -61 31 -123 69 -93 57 -114 67 -119 54 -8 -21 53 -80 162
-157 97 -68 109 -84 88 -124 -17 -32 -44 -58 -52 -49 -3 3 1 16 10 29 26 37
18 46 -10 11 -29 -37 -9 -46 -189 77 -75 51 -104 75 -92 78 33 7 12 27 -50 48
-34 12 -77 31 -97 43 -20 13 -36 18 -36 11 0 -18 30 -70 40 -70 5 0 12 -15 16
-34 7 -41 28 -61 71 -71 27 -5 253 -157 253 -170 0 -7 -47 -55 -54 -55 -3 0 1
12 11 28 l17 27 -21 -19 c-27 -23 -50 -18 -123 26 -30 19 -69 39 -86 47 -23 9
-30 17 -27 31 7 27 -37 51 -107 57 -50 5 -60 9 -60 25 0 47 -50 98 -95 98 -8
0 -21 15 -29 33 -38 90 -117 104 -194 34 l-23 -21 -25 31 c-13 17 -41 37 -60
43 -22 8 -32 15 -25 20 13 7 -94 82 -161 112 -41 18 -47 14 -23 -18 20 -26 19
-34 -5 -34 -48 0 -126 69 -144 128 -4 12 -12 19 -18 16 -6 -4 -8 1 -5 12 3 11
8 36 12 57 10 61 65 197 80 197 7 0 42 -9 77 -20 75 -23 152 -26 200 -6 19 8
86 27 148 41 62 14 138 37 169 49 48 21 75 30 102 35 3 0 20 -4 38 -10z m220
-5 c28 -8 119 -30 201 -49 82 -19 170 -45 197 -59 58 -31 73 -31 186 -2 l88
22 19 -35 c25 -51 52 -144 43 -152 -5 -4 -35 -12 -68 -18 l-60 -10 55 3 c30 3
62 6 70 8 9 2 16 -6 18 -19 2 -13 0 -23 -5 -24 -80 -4 -187 -37 -151 -46 14
-4 62 7 146 33 21 6 22 3 22 -40 l0 -46 -84 0 c-62 0 -87 4 -96 15 -28 34 -28
12 0 -34 17 -26 30 -54 30 -60 0 -24 -73 -101 -95 -101 -19 0 -175 107 -175
119 0 4 11 13 25 19 14 6 25 16 25 20 0 5 20 15 45 22 57 16 68 31 18 23 l-38
-6 43 48 c23 26 42 53 42 59 0 6 -5 4 -10 -4 -5 -8 -10 -11 -10 -7 0 4 -12 -5
-26 -20 -24 -27 -25 -27 -19 -5 7 23 6 23 -17 8 -40 -26 -120 -31 -180 -11
-84 28 -120 45 -170 81 -38 29 -47 41 -50 70 l-3 35 -22 -20 c-29 -27 -33 -26
-33 7 l-1 27 -15 -27 c-17 -33 -24 -36 -17 -8 5 20 3 19 -44 -4 -61 -31 -134
-49 -147 -35 -17 16 -23 10 -29 -32 -4 -32 -16 -53 -54 -92 -71 -73 -158 -106
-203 -77 -11 7 -5 10 23 10 31 0 45 7 68 31 26 28 40 79 22 79 -5 0 -14 4 -22
9 -11 7 -8 19 15 62 41 78 43 80 66 68 11 -6 23 -8 26 -4 3 3 -4 8 -16 12 -34
8 -27 17 36 43 57 23 155 72 222 110 42 24 43 24 109 4z m-642 -616 c13 -12
23 -28 23 -37 0 -9 -11 -2 -29 19 -26 32 -30 34 -56 22 -15 -7 -25 -15 -22
-19 4 -3 13 0 22 7 13 11 19 10 35 -5 11 -10 20 -24 20 -31 0 -19 -40 -54 -62
-54 -20 0 -35 41 -22 62 6 10 4 10 -9 -1 -9 -7 -17 -23 -17 -34 0 -25 27 -57
49 -57 24 -1 -35 -50 -60 -50 -27 0 -59 35 -59 67 0 18 16 42 53 80 61 60 95
68 134 31z m236 -30 c29 -39 13 -47 -18 -9 -15 17 -33 31 -42 31 -24 0 -73
-56 -73 -84 0 -27 41 -63 60 -51 22 14 8 -11 -27 -47 -45 -46 -73 -48 -106 -8
-14 17 -30 30 -36 30 -23 0 -8 20 69 94 74 70 84 77 117 74 25 -2 42 -11 56
-30z m109 -95 c10 -9 18 -26 17 -37 0 -21 0 -21 -9 -1 -4 12 -16 27 -26 35
-18 14 -18 13 0 -8 16 -18 17 -26 8 -47 -18 -39 -92 -48 -92 -11 0 8 12 28 26
45 32 38 24 41 -11 4 -46 -51 -22 -108 36 -86 39 15 35 8 -27 -49 l-50 -47
-37 25 c-20 13 -37 31 -37 38 0 8 30 46 66 85 70 76 99 87 136 54z"/>
</g>
</svg>
